<svg width="157" height="80" viewBox="0 0 157 80" fill="none" xmlns="http://www.w3.org/2000/svg">
<path d="M27.1865 79.4179H113.417C122.353 79.4179 129.335 78.4414 134.364 73.4121C139.345 68.3828 140.273 61.5469 140.273 52.5625V27.1719C140.273 18.1875 139.345 11.3027 134.364 6.27338C129.286 1.29298 122.353 0.267578 113.417 0.267578H27.0889C18.251 0.267578 11.3174 1.29298 6.28805 6.32228C1.25875 11.3027 0.331055 18.1875 0.331055 27.0254V52.5625C0.331055 61.5469 1.25875 68.4316 6.28805 73.4121C11.3174 78.4414 18.251 79.4179 27.1865 79.4179ZM25.8682 69.7011C20.7901 69.7011 16.1026 68.9687 13.417 66.2832C10.6826 63.5977 10.0479 59.0078 10.0479 53.8809V25.9023C10.0479 20.7266 10.7315 16.0879 13.417 13.4023C16.1026 10.7168 20.7901 10.0332 25.9658 10.0332H114.784C119.862 10.0332 124.501 10.7168 127.235 13.4023C129.921 16.0879 130.556 20.7266 130.556 25.8047V53.8809C130.556 59.0078 129.872 63.5977 127.235 66.2832C124.55 69.0176 119.862 69.7011 114.784 69.7011H25.8682ZM25.5264 62.5234H40.4678C43.6904 62.5234 45.4971 62.084 46.9131 60.7168C48.3291 59.3008 48.7197 57.4453 48.7197 54.2227V25.4629C48.7197 22.2402 48.3291 20.4336 46.9131 19.0176C45.4971 17.6016 43.6904 17.1621 40.4678 17.1621H25.5264C22.2549 17.1621 20.4483 17.6016 19.0322 19.0176C17.6651 20.4336 17.2256 22.2402 17.2256 25.4629V54.2227C17.2256 57.4453 17.6651 59.3008 19.0322 60.7168C20.4483 62.084 22.2549 62.5234 25.5264 62.5234ZM147.45 52.5137C151.454 52.2695 156.776 47.1914 156.776 39.4766C156.776 31.8105 151.454 26.6836 147.45 26.4883V52.5137Z" fill="black"/>
</svg>
