<svg width="112" height="90" viewBox="0 0 112 90" fill="none" xmlns="http://www.w3.org/2000/svg">
<path d="M15.2158 89.0332H98.0283C106.622 89.0332 111.456 84.1504 111.456 74.7754V23.3105C111.456 13.8867 106.573 9.05273 97.0513 9.05273H49.249C45.538 9.05273 43.5849 8.32033 41.0458 6.07423L38.2138 3.63283C34.9912 0.800828 32.7939 0.0195312 27.9111 0.0195312H13.3603C5.25482 0.0195312 0.811523 4.46293 0.811523 13.3984V74.7754C0.811523 84.1993 5.69432 89.0332 15.2158 89.0332ZM6.86622 13.7891C6.86622 8.56453 9.50292 6.02543 14.5322 6.02543H26.3974C30.0107 6.02543 31.8662 6.70903 34.5029 9.10163L37.3349 11.4941C40.4111 14.1797 42.8525 15.0586 47.7841 15.0586H96.9543C102.325 15.0586 105.45 17.9883 105.45 23.6035V27.6562H6.86622V13.7891ZM15.3134 82.9786C9.84472 82.9786 6.86622 80.0977 6.86622 74.4336V33.3691H105.45V74.4825C105.45 80.0977 102.325 82.9786 96.9543 82.9786H15.3134Z" fill="black"/>
</svg>
