<svg width="107" height="77" viewBox="0 0 107 77" fill="none" xmlns="http://www.w3.org/2000/svg">
<path d="M6.79111 31.5195C7.47471 32.252 8.54891 32.252 9.23251 31.4219C20.7071 19.459 36.1368 12.916 53.422 12.916C70.7071 12.916 86.381 19.2637 97.611 31.4707C98.295 32.2031 99.32 32.2031 100.053 31.4707L105.717 25.8066C106.4 25.123 106.4 24.1953 105.815 23.5117C94.926 10.2305 74.1739 0.757812 53.422 0.757812C32.6212 0.757812 11.8204 10.1328 0.980613 23.5117C0.394633 24.1953 0.492293 25.123 1.07821 25.8066L6.79111 31.5195ZM26.2735 51.1484C27.0548 51.8809 27.9825 51.832 28.8126 50.9531C34.672 44.6055 44.1935 40.2598 53.422 40.3086C62.6505 40.2598 72.172 44.6543 78.0313 50.9531C78.8614 51.8809 79.7403 51.8809 80.5216 51.0996L87.0645 44.7031C87.6505 44.0684 87.6993 43.2383 87.1622 42.5547C80.3263 34.0098 67.1427 28.1992 53.422 28.1992C39.7013 28.1992 26.5665 34.0586 19.6329 42.5547C19.0958 43.2383 19.1446 44.0684 19.7794 44.7031L26.2735 51.1484ZM53.422 76.832C54.1544 76.832 54.838 76.3926 56.4493 74.8301L67.5821 64.1367C68.1681 63.5996 68.3145 62.9648 67.7286 62.1836C65.0919 58.7168 59.3302 55.5918 53.422 55.5918C47.4649 55.5918 41.6544 58.7168 39.0665 62.2324C38.5782 62.9648 38.627 63.5996 39.2618 64.1367L50.3458 74.8301C51.9571 76.4414 52.6407 76.832 53.422 76.832Z" fill="black"/>
</svg>
