<svg width="94" height="95" viewBox="0 0 94 95" fill="none" xmlns="http://www.w3.org/2000/svg">
<path d="M38.4287 77.8476C46.1924 77.8476 53.4678 75.5039 59.5225 71.5L80.9092 92.9355C82.3252 94.3027 84.1318 94.9863 86.085 94.9863C90.1375 94.9863 93.1165 91.8125 93.1165 87.8086C93.1165 85.9531 92.4815 84.1465 91.1145 82.7793L69.874 61.4414C74.2685 55.2402 76.8564 47.623 76.8564 39.4199C76.8564 18.2773 59.5713 0.992188 38.4287 0.992188C17.2861 0.992188 0.000976562 18.2773 0.000976562 39.4199C0.000976562 60.5625 17.2861 77.8476 38.4287 77.8476ZM38.4287 67.5938C22.9502 67.5938 10.2549 54.8984 10.2549 39.4199C10.2549 23.9902 22.9502 11.2461 38.4287 11.2461C53.9072 11.2461 66.6025 23.9902 66.6025 39.4199C66.6025 54.8984 53.9072 67.5938 38.4287 67.5938Z" fill="black"/>
</svg>
